<svg xmlns="http://www.w3.org/2000/svg" baseProfile="tiny-ps" version="1.2" viewBox="0 0 1545 1339">
    <path fill="currentColor" d="M1544.13 310.25c-6.85 150.54-111.94 356.76-315.06 618.47-209.98 273.34-387.67 410.06-533.09 410.06-89.99 0-166.17-83.22-228.45-249.77-41.52-152.63-83.14-305.16-124.65-457.78-46.19-166.45-95.75-249.77-148.79-249.77-11.52 0-52.05 24.36-121.28 72.88L.2 360.58c76.18-67.02 151.37-134.13 225.37-201.35C327.28 71.33 403.56 25 454.52 20.32 574.71 8.79 648.7 91.12 676.51 267.21c30 190.11 50.76 308.34 62.38 354.57 34.66 157.7 72.81 236.45 114.42 236.45 32.38 0 80.95-51.21 145.71-153.42 64.66-102.32 99.33-180.17 103.99-233.57 9.24-88.3-25.43-132.54-103.99-132.54-37.05 0-75.19 8.45-114.32 25.36C960.59 115.08 1105.6-5.93 1319.75.93c158.72 4.67 233.52 107.78 224.38 309.33"/>
</svg>
